<svg width="79" height="119" viewBox="0 0 79 119" fill="none" xmlns="http://www.w3.org/2000/svg">
<path d="M63.1992 33.9655L49.6061 26L63.1992 18.0345C63.9652 17.5855 64.2272 16.5923 63.7852 15.8143L60.5832 10.1847C60.1412 9.40773 59.1622 9.14062 58.3962 9.58953L44.803 17.5551V1.625C44.803 0.727188 44.086 0 43.202 0H36.798C35.914 0 35.197 0.727188 35.197 1.625V17.5561L21.6038 9.59055C20.8378 9.14164 19.8588 9.40875 19.4168 10.1857L16.2148 15.8143C15.7728 16.5913 16.0348 17.5855 16.8008 18.0345L30.3939 26L16.8008 33.9655C16.0348 34.4145 15.7728 35.4088 16.2148 36.1857L19.4168 41.8153C19.8588 42.5923 20.8378 42.8584 21.6038 42.4105L35.197 34.4449V50.375C35.197 51.2728 35.914 52 36.798 52H43.202C44.086 52 44.803 51.2728 44.803 50.375V34.4439L58.3962 42.4095C59.1622 42.8584 60.1412 42.5923 60.5832 41.8143L63.7852 36.1847C64.2272 35.4077 63.9652 34.4145 63.1992 33.9655Z" fill="#CC36A2"/>
<path d="M8.27805 72.6C8.99671 72.6 9.67138 72.6953 10.302 72.886C10.9474 73.062 11.512 73.3407 11.996 73.722C12.48 74.1033 12.8614 74.5873 13.14 75.174C13.4334 75.7607 13.58 76.4573 13.58 77.264C13.58 78.0707 13.4334 78.7747 13.14 79.376C12.8614 79.9627 12.48 80.454 11.996 80.85C11.512 81.246 10.9474 81.5393 10.302 81.73C9.67138 81.9207 8.99671 82.016 8.27805 82.016H4.23005V87.406C4.23005 87.5673 4.17138 87.7067 4.05405 87.824C3.93671 87.9413 3.79738 88 3.63605 88H2.73405C2.57271 88 2.43338 87.9413 2.31605 87.824C2.19871 87.7067 2.14005 87.5673 2.14005 87.406V73.194C2.14005 73.0327 2.19871 72.8933 2.31605 72.776C2.43338 72.6587 2.57271 72.6 2.73405 72.6H8.27805ZM4.23005 80.036H8.16805C9.22405 80.036 10.038 79.8087 10.61 79.354C11.1967 78.8993 11.49 78.2027 11.49 77.264C11.49 76.3253 11.1967 75.6433 10.61 75.218C10.038 74.7927 9.22405 74.58 8.16805 74.58H4.23005V80.036ZM20.4844 76.34C21.2764 76.34 21.9804 76.4647 22.5964 76.714C23.2124 76.9487 23.7404 77.2787 24.1804 77.704C24.6204 78.1293 24.9651 78.65 25.2144 79.266C25.4784 79.8673 25.6398 80.5273 25.6984 81.246C25.7131 81.378 25.7204 81.5393 25.7204 81.73C25.7204 81.906 25.7204 82.0967 25.7204 82.302C25.7204 82.4927 25.7204 82.6833 25.7204 82.874C25.7204 83.05 25.7131 83.1967 25.6984 83.314C25.6251 84.0473 25.4638 84.7147 25.2144 85.316C24.9651 85.9173 24.6204 86.4307 24.1804 86.856C23.7404 87.2813 23.2124 87.6187 22.5964 87.868C21.9804 88.1027 21.2764 88.22 20.4844 88.22C19.6924 88.22 18.9884 88.1027 18.3724 87.868C17.7564 87.6187 17.2284 87.2813 16.7884 86.856C16.3484 86.4307 15.9964 85.9173 15.7324 85.316C15.4831 84.7147 15.3291 84.0473 15.2704 83.314C15.2558 83.1967 15.2411 83.05 15.2264 82.874C15.2264 82.6833 15.2264 82.4927 15.2264 82.302C15.2264 82.0967 15.2264 81.906 15.2264 81.73C15.2411 81.5393 15.2558 81.378 15.2704 81.246C15.3291 80.5273 15.4831 79.8673 15.7324 79.266C15.9964 78.65 16.3484 78.1293 16.7884 77.704C17.2284 77.2787 17.7564 76.9487 18.3724 76.714C18.9884 76.4647 19.6924 76.34 20.4844 76.34ZM23.6964 83.204C23.7258 82.9547 23.7404 82.654 23.7404 82.302C23.7404 81.9353 23.7258 81.62 23.6964 81.356C23.6524 80.916 23.5571 80.5053 23.4104 80.124C23.2638 79.7427 23.0584 79.4127 22.7944 79.134C22.5304 78.8553 22.2078 78.6353 21.8264 78.474C21.4451 78.3127 20.9978 78.232 20.4844 78.232C19.9711 78.232 19.5238 78.3127 19.1424 78.474C18.7611 78.6353 18.4384 78.8553 18.1744 79.134C17.9104 79.4127 17.7051 79.7427 17.5584 80.124C17.4118 80.5053 17.3164 80.916 17.2724 81.356C17.2431 81.62 17.2284 81.9353 17.2284 82.302C17.2284 82.654 17.2431 82.9547 17.2724 83.204C17.3164 83.644 17.4118 84.0547 17.5584 84.436C17.7051 84.8173 17.9104 85.1473 18.1744 85.426C18.4384 85.7047 18.7611 85.9247 19.1424 86.086C19.5238 86.2473 19.9711 86.328 20.4844 86.328C20.9978 86.328 21.4451 86.2473 21.8264 86.086C22.2078 85.9247 22.5304 85.7047 22.7944 85.426C23.0584 85.1473 23.2638 84.8173 23.4104 84.436C23.5571 84.0547 23.6524 83.644 23.6964 83.204ZM33.9077 88.22C32.9984 88.22 32.2724 88.066 31.7297 87.758C31.187 87.4353 30.7764 87.0907 30.4977 86.724V91.586C30.4977 91.7473 30.439 91.8867 30.3217 92.004C30.2044 92.1213 30.065 92.18 29.9037 92.18H29.0897C28.9284 92.18 28.789 92.1213 28.6717 92.004C28.5544 91.8867 28.4957 91.7473 28.4957 91.586V77.154C28.4957 76.9927 28.5544 76.8533 28.6717 76.736C28.789 76.6187 28.9284 76.56 29.0897 76.56H29.9037C30.065 76.56 30.2044 76.6187 30.3217 76.736C30.439 76.8533 30.4977 76.9927 30.4977 77.154V77.836C30.791 77.44 31.209 77.0953 31.7517 76.802C32.2944 76.494 33.013 76.34 33.9077 76.34C34.597 76.34 35.235 76.4647 35.8217 76.714C36.423 76.9487 36.9437 77.2933 37.3837 77.748C37.8237 78.2027 38.1757 78.7527 38.4397 79.398C38.7037 80.0433 38.8577 80.7693 38.9017 81.576C38.9164 81.796 38.9237 82.038 38.9237 82.302C38.9237 82.5513 38.9164 82.786 38.9017 83.006C38.8577 83.8127 38.7037 84.5387 38.4397 85.184C38.1757 85.8293 37.8237 86.3793 37.3837 86.834C36.9437 87.274 36.423 87.6187 35.8217 87.868C35.235 88.1027 34.597 88.22 33.9077 88.22ZM30.4977 81.334C30.483 81.554 30.4757 81.8473 30.4757 82.214C30.4757 82.566 30.483 82.852 30.4977 83.072C30.5417 84.1133 30.8497 84.92 31.4217 85.492C32.0084 86.0493 32.7637 86.328 33.6877 86.328C34.6557 86.328 35.4184 86.02 35.9757 85.404C36.533 84.788 36.841 83.952 36.8997 82.896C36.9144 82.4853 36.9144 82.0747 36.8997 81.664C36.841 80.608 36.533 79.772 35.9757 79.156C35.4184 78.54 34.6557 78.232 33.6877 78.232C32.7784 78.232 32.0304 78.5107 31.4437 79.068C30.857 79.6253 30.5417 80.3807 30.4977 81.334ZM41.5341 77.154C41.5341 76.9927 41.5928 76.8533 41.7101 76.736C41.8275 76.6187 41.9668 76.56 42.1281 76.56H42.9421C43.1035 76.56 43.2428 76.6187 43.3601 76.736C43.4775 76.8533 43.5361 76.9927 43.5361 77.154V82.962C43.5361 84.0913 43.7855 84.9347 44.2841 85.492C44.7975 86.0493 45.5381 86.328 46.5061 86.328C47.4301 86.328 48.1561 86.0493 48.6841 85.492C49.2121 84.9347 49.4761 84.0913 49.4761 82.962V77.154C49.4761 76.9927 49.5348 76.8533 49.6521 76.736C49.7695 76.6187 49.9088 76.56 50.0701 76.56H50.8841C51.0455 76.56 51.1848 76.6187 51.3021 76.736C51.4195 76.8533 51.4781 76.9927 51.4781 77.154V87.406C51.4781 87.5673 51.4195 87.7067 51.3021 87.824C51.1848 87.9413 51.0455 88 50.8841 88H50.0701C49.9088 88 49.7695 87.9413 49.6521 87.824C49.5348 87.7067 49.4761 87.5673 49.4761 87.406V86.724C49.1975 87.0907 48.8015 87.4353 48.2881 87.758C47.7748 88.066 47.0708 88.22 46.1761 88.22C45.4868 88.22 44.8561 88.11 44.2841 87.89C43.7121 87.6553 43.2208 87.3327 42.8101 86.922C42.3995 86.4967 42.0841 85.9833 41.8641 85.382C41.6441 84.766 41.5341 84.0693 41.5341 83.292V77.154ZM56.7731 87.406C56.7731 87.5673 56.7144 87.7067 56.5971 87.824C56.4798 87.9413 56.3404 88 56.1791 88H55.3651C55.2038 88 55.0644 87.9413 54.9471 87.824C54.8298 87.7067 54.7711 87.5673 54.7711 87.406V72.974C54.7711 72.8127 54.8298 72.6733 54.9471 72.556C55.0644 72.4387 55.2038 72.38 55.3651 72.38H56.1791C56.3404 72.38 56.4798 72.4387 56.5971 72.556C56.7144 72.6733 56.7731 72.8127 56.7731 72.974V87.406ZM59.2637 85.118C59.2637 84.5313 59.3811 84.018 59.6157 83.578C59.8504 83.138 60.1731 82.764 60.5837 82.456C60.9944 82.148 61.4711 81.8987 62.0137 81.708C62.5711 81.5173 63.1577 81.3707 63.7737 81.268L66.8757 80.762V80.476C66.8757 79.728 66.6264 79.1707 66.1277 78.804C65.6437 78.4227 65.0351 78.232 64.3017 78.232C63.6564 78.232 63.1651 78.3493 62.8277 78.584C62.5051 78.8187 62.2264 79.0973 61.9917 79.42C61.9037 79.5373 61.8084 79.618 61.7057 79.662C61.6031 79.706 61.4637 79.728 61.2877 79.728H60.6277C60.4664 79.728 60.3197 79.6693 60.1877 79.552C60.0704 79.4347 60.0191 79.2953 60.0337 79.134C60.0631 78.8113 60.1877 78.4813 60.4077 78.144C60.6424 77.8067 60.9504 77.506 61.3317 77.242C61.7277 76.978 62.1751 76.7653 62.6737 76.604C63.1871 76.428 63.7297 76.34 64.3017 76.34C64.9617 76.34 65.5704 76.4353 66.1277 76.626C66.6997 76.8167 67.1837 77.0953 67.5797 77.462C67.9904 77.8287 68.3057 78.2833 68.5257 78.826C68.7604 79.3687 68.8777 79.992 68.8777 80.696V87.406C68.8777 87.5673 68.8191 87.7067 68.7017 87.824C68.5844 87.9413 68.4451 88 68.2837 88H67.4697C67.3084 88 67.1691 87.9413 67.0517 87.824C66.9344 87.7067 66.8757 87.5673 66.8757 87.406V86.504C66.7437 86.7827 66.5384 87.032 66.2597 87.252C65.9811 87.4573 65.6584 87.6333 65.2917 87.78C64.9397 87.9267 64.5657 88.0367 64.1697 88.11C63.7884 88.1833 63.4291 88.22 63.0917 88.22C62.5197 88.22 61.9917 88.1393 61.5077 87.978C61.0384 87.8167 60.6351 87.604 60.2977 87.34C59.9751 87.0613 59.7184 86.7313 59.5277 86.35C59.3517 85.9687 59.2637 85.558 59.2637 85.118ZM63.3117 86.328C63.8397 86.328 64.3237 86.2473 64.7637 86.086C65.2037 85.9247 65.5777 85.7047 65.8857 85.426C66.2084 85.1327 66.4504 84.788 66.6117 84.392C66.7877 83.996 66.8757 83.556 66.8757 83.072V82.522L64.2797 82.94C63.3557 83.0867 62.6224 83.3213 62.0797 83.644C61.5371 83.9667 61.2657 84.3847 61.2657 84.898C61.2657 85.0593 61.3024 85.2207 61.3757 85.382C61.4491 85.5433 61.5664 85.6973 61.7277 85.844C61.8891 85.9907 62.0944 86.108 62.3437 86.196C62.6077 86.284 62.9304 86.328 63.3117 86.328ZM77.8955 76.56C78.0568 76.56 78.1962 76.6187 78.3135 76.736C78.4308 76.8533 78.4895 76.9927 78.4895 77.154V77.858C78.4895 78.0193 78.4308 78.1587 78.3135 78.276C78.1962 78.3933 78.0568 78.452 77.8955 78.452H76.6195C74.9328 78.452 74.0895 79.2953 74.0895 80.982V87.406C74.0895 87.5673 74.0308 87.7067 73.9135 87.824C73.7962 87.9413 73.6568 88 73.4955 88H72.6815C72.5202 88 72.3808 87.9413 72.2635 87.824C72.1462 87.7067 72.0875 87.5673 72.0875 87.406V77.154C72.0875 76.9927 72.1462 76.8533 72.2635 76.736C72.3808 76.6187 72.5202 76.56 72.6815 76.56H73.4955C73.6568 76.56 73.7962 76.6187 73.9135 76.736C74.0308 76.8533 74.0895 76.9927 74.0895 77.154V77.836C74.3828 77.396 74.7348 77.0733 75.1455 76.868C75.5562 76.6627 76.0915 76.56 76.7515 76.56H77.8955ZM7.66488 104.452C7.63555 105.112 7.62088 105.728 7.62088 106.3C7.62088 106.872 7.63555 107.488 7.66488 108.148C7.70888 109.365 8.07555 110.355 8.76488 111.118C9.46888 111.866 10.4735 112.24 11.7789 112.24C12.4829 112.24 13.0769 112.152 13.5609 111.976C14.0449 111.8 14.4409 111.573 14.7489 111.294C15.0715 111.015 15.3136 110.7 15.4749 110.348C15.6509 109.981 15.7829 109.615 15.8709 109.248C15.9002 109.087 15.9736 108.969 16.0909 108.896C16.2082 108.808 16.3255 108.764 16.4429 108.764H17.4549C17.5869 108.764 17.6969 108.815 17.7849 108.918C17.8876 109.006 17.9389 109.116 17.9389 109.248C17.9242 109.732 17.7996 110.26 17.5649 110.832C17.3302 111.404 16.9636 111.947 16.4649 112.46C15.9809 112.959 15.3502 113.377 14.5729 113.714C13.8102 114.051 12.8789 114.22 11.7789 114.22C10.8255 114.22 9.97488 114.073 9.22688 113.78C8.47888 113.472 7.83355 113.054 7.29088 112.526C6.76288 111.998 6.35222 111.375 6.05888 110.656C5.76555 109.923 5.60422 109.123 5.57488 108.258C5.53088 106.953 5.53088 105.647 5.57488 104.342C5.60422 103.491 5.76555 102.699 6.05888 101.966C6.35222 101.233 6.76288 100.602 7.29088 100.074C7.83355 99.546 8.47888 99.1353 9.22688 98.842C9.97488 98.534 10.8255 98.38 11.7789 98.38C12.8789 98.38 13.8102 98.5487 14.5729 98.886C15.3502 99.2233 15.9809 99.6487 16.4649 100.162C16.9636 100.661 17.3302 101.196 17.5649 101.768C17.7996 102.34 17.9242 102.868 17.9389 103.352C17.9389 103.484 17.8876 103.601 17.7849 103.704C17.6969 103.792 17.5869 103.836 17.4549 103.836H16.4429C16.3255 103.836 16.2082 103.799 16.0909 103.726C15.9736 103.638 15.9002 103.513 15.8709 103.352C15.7829 102.985 15.6509 102.626 15.4749 102.274C15.3136 101.907 15.0715 101.585 14.7489 101.306C14.4409 101.027 14.0449 100.8 13.5609 100.624C13.0769 100.448 12.4829 100.36 11.7789 100.36C10.4735 100.36 9.46888 100.741 8.76488 101.504C8.07555 102.252 7.70888 103.235 7.66488 104.452ZM30.7427 113.406C30.7427 113.567 30.684 113.707 30.5667 113.824C30.4494 113.941 30.31 114 30.1487 114H29.3347C29.1734 114 29.034 113.941 28.9167 113.824C28.7994 113.707 28.7407 113.567 28.7407 113.406V107.598C28.7407 106.469 28.4694 105.625 27.9267 105.068C27.384 104.511 26.6287 104.232 25.6607 104.232C24.7367 104.232 23.9887 104.511 23.4167 105.068C22.8594 105.625 22.5807 106.469 22.5807 107.598V113.406C22.5807 113.567 22.522 113.707 22.4047 113.824C22.2874 113.941 22.148 114 21.9867 114H21.1727C21.0114 114 20.872 113.941 20.7547 113.824C20.6374 113.707 20.5787 113.567 20.5787 113.406V98.974C20.5787 98.8127 20.6374 98.6733 20.7547 98.556C20.872 98.4387 21.0114 98.38 21.1727 98.38H21.9867C22.148 98.38 22.2874 98.4387 22.4047 98.556C22.522 98.6733 22.5807 98.8127 22.5807 98.974V103.836C22.8594 103.469 23.27 103.132 23.8127 102.824C24.37 102.501 25.096 102.34 25.9907 102.34C26.68 102.34 27.318 102.457 27.9047 102.692C28.4914 102.912 28.99 103.235 29.4007 103.66C29.826 104.071 30.156 104.584 30.3907 105.2C30.6254 105.816 30.7427 106.505 30.7427 107.268V113.406ZM38.628 102.34C39.42 102.34 40.124 102.465 40.74 102.714C41.356 102.949 41.884 103.279 42.324 103.704C42.764 104.129 43.1087 104.65 43.358 105.266C43.622 105.867 43.7833 106.527 43.842 107.246C43.8567 107.378 43.864 107.539 43.864 107.73C43.864 107.906 43.864 108.097 43.864 108.302C43.864 108.493 43.864 108.683 43.864 108.874C43.864 109.05 43.8567 109.197 43.842 109.314C43.7687 110.047 43.6073 110.715 43.358 111.316C43.1087 111.917 42.764 112.431 42.324 112.856C41.884 113.281 41.356 113.619 40.74 113.868C40.124 114.103 39.42 114.22 38.628 114.22C37.836 114.22 37.132 114.103 36.516 113.868C35.9 113.619 35.372 113.281 34.932 112.856C34.492 112.431 34.14 111.917 33.876 111.316C33.6267 110.715 33.4727 110.047 33.414 109.314C33.3993 109.197 33.3847 109.05 33.37 108.874C33.37 108.683 33.37 108.493 33.37 108.302C33.37 108.097 33.37 107.906 33.37 107.73C33.3847 107.539 33.3993 107.378 33.414 107.246C33.4727 106.527 33.6267 105.867 33.876 105.266C34.14 104.65 34.492 104.129 34.932 103.704C35.372 103.279 35.9 102.949 36.516 102.714C37.132 102.465 37.836 102.34 38.628 102.34ZM41.84 109.204C41.8693 108.955 41.884 108.654 41.884 108.302C41.884 107.935 41.8693 107.62 41.84 107.356C41.796 106.916 41.7007 106.505 41.554 106.124C41.4073 105.743 41.202 105.413 40.938 105.134C40.674 104.855 40.3513 104.635 39.97 104.474C39.5887 104.313 39.1413 104.232 38.628 104.232C38.1147 104.232 37.6673 104.313 37.286 104.474C36.9047 104.635 36.582 104.855 36.318 105.134C36.054 105.413 35.8487 105.743 35.702 106.124C35.5553 106.505 35.46 106.916 35.416 107.356C35.3867 107.62 35.372 107.935 35.372 108.302C35.372 108.654 35.3867 108.955 35.416 109.204C35.46 109.644 35.5553 110.055 35.702 110.436C35.8487 110.817 36.054 111.147 36.318 111.426C36.582 111.705 36.9047 111.925 37.286 112.086C37.6673 112.247 38.1147 112.328 38.628 112.328C39.1413 112.328 39.5887 112.247 39.97 112.086C40.3513 111.925 40.674 111.705 40.938 111.426C41.202 111.147 41.4073 110.817 41.554 110.436C41.7007 110.055 41.796 109.644 41.84 109.204ZM48.6413 113.406C48.6413 113.567 48.5826 113.707 48.4653 113.824C48.3479 113.941 48.2086 114 48.0473 114H47.2333C47.0719 114 46.9326 113.941 46.8153 113.824C46.6979 113.707 46.6393 113.567 46.6393 113.406V103.154C46.6393 102.993 46.6979 102.853 46.8153 102.736C46.9326 102.619 47.0719 102.56 47.2333 102.56H48.0473C48.2086 102.56 48.3479 102.619 48.4653 102.736C48.5826 102.853 48.6413 102.993 48.6413 103.154V113.406ZM48.8613 100.228C48.8613 100.389 48.8026 100.529 48.6853 100.646C48.5679 100.763 48.4286 100.822 48.2673 100.822H47.0133C46.8519 100.822 46.7126 100.763 46.5953 100.646C46.4779 100.529 46.4193 100.389 46.4193 100.228V98.974C46.4193 98.8127 46.4779 98.6733 46.5953 98.556C46.7126 98.4387 46.8519 98.38 47.0133 98.38H48.2673C48.4286 98.38 48.5679 98.4387 48.6853 98.556C48.8026 98.6733 48.8613 98.8127 48.8613 98.974V100.228ZM53.4199 109.05C53.4786 109.637 53.6032 110.135 53.7939 110.546C53.9992 110.957 54.2412 111.294 54.5199 111.558C54.8132 111.822 55.1359 112.02 55.4879 112.152C55.8399 112.269 56.1992 112.328 56.5659 112.328C57.2699 112.328 57.8712 112.196 58.3699 111.932C58.8686 111.668 59.2572 111.228 59.5359 110.612C59.6386 110.377 59.7412 110.223 59.8439 110.15C59.9612 110.062 60.1006 110.018 60.2619 110.018H60.9219C61.0832 110.018 61.2226 110.077 61.3399 110.194C61.4719 110.311 61.5306 110.451 61.5159 110.612C61.5012 110.964 61.3839 111.353 61.1639 111.778C60.9586 112.189 60.6432 112.577 60.2179 112.944C59.8072 113.296 59.2939 113.597 58.6779 113.846C58.0766 114.095 57.3726 114.22 56.5659 114.22C55.7592 114.22 55.0406 114.088 54.4099 113.824C53.7939 113.56 53.2659 113.201 52.8259 112.746C52.4006 112.291 52.0632 111.756 51.8139 111.14C51.5792 110.524 51.4472 109.864 51.4179 109.16C51.4032 108.925 51.3886 108.639 51.3739 108.302C51.3739 107.95 51.3886 107.649 51.4179 107.4C51.4766 106.696 51.6232 106.036 51.8579 105.42C52.1072 104.804 52.4446 104.269 52.8699 103.814C53.2952 103.359 53.8159 103 54.4319 102.736C55.0479 102.472 55.7592 102.34 56.5659 102.34C57.3726 102.34 58.0766 102.465 58.6779 102.714C59.2939 102.963 59.8072 103.271 60.2179 103.638C60.6432 103.99 60.9586 104.379 61.1639 104.804C61.3839 105.215 61.5012 105.596 61.5159 105.948C61.5306 106.109 61.4719 106.249 61.3399 106.366C61.2226 106.483 61.0832 106.542 60.9219 106.542H60.2619C60.1006 106.542 59.9612 106.505 59.8439 106.432C59.7412 106.344 59.6386 106.183 59.5359 105.948C59.2572 105.332 58.8686 104.892 58.3699 104.628C57.8712 104.364 57.2699 104.232 56.5659 104.232C56.1992 104.232 55.8326 104.298 55.4659 104.43C55.1139 104.547 54.7912 104.738 54.4979 105.002C54.2192 105.266 53.9772 105.603 53.7719 106.014C53.5812 106.425 53.4639 106.923 53.4199 107.51C53.3759 108.053 53.3759 108.566 53.4199 109.05ZM63.621 107.18C63.6797 106.505 63.841 105.875 64.105 105.288C64.369 104.701 64.7137 104.188 65.139 103.748C65.5644 103.308 66.0704 102.963 66.657 102.714C67.2584 102.465 67.9257 102.34 68.659 102.34C69.451 102.34 70.155 102.472 70.771 102.736C71.4017 102.985 71.937 103.352 72.377 103.836C72.817 104.32 73.1544 104.907 73.389 105.596C73.6237 106.285 73.741 107.055 73.741 107.906V108.5C73.741 108.661 73.6824 108.801 73.565 108.918C73.4477 109.035 73.3084 109.094 73.147 109.094H65.579V109.226C65.6084 110.223 65.909 110.993 66.481 111.536C67.0677 112.064 67.7937 112.328 68.659 112.328C69.4657 112.328 70.067 112.218 70.463 111.998C70.8737 111.763 71.2037 111.507 71.453 111.228C71.5704 111.111 71.673 111.03 71.761 110.986C71.849 110.942 71.981 110.92 72.157 110.92H72.817C72.9784 110.92 73.125 110.979 73.257 111.096C73.389 111.213 73.4404 111.353 73.411 111.514C73.367 111.778 73.2424 112.071 73.037 112.394C72.8317 112.702 72.531 112.995 72.135 113.274C71.7537 113.538 71.2697 113.765 70.683 113.956C70.111 114.132 69.4364 114.22 68.659 114.22C67.9257 114.22 67.2657 114.095 66.679 113.846C66.0924 113.582 65.579 113.23 65.139 112.79C64.7137 112.335 64.369 111.807 64.105 111.206C63.841 110.59 63.6797 109.923 63.621 109.204C63.5477 108.529 63.5477 107.855 63.621 107.18ZM65.579 107.246H71.761V107.18C71.761 106.285 71.475 105.574 70.903 105.046C70.3457 104.503 69.5977 104.232 68.659 104.232C68.2337 104.232 67.8377 104.305 67.471 104.452C67.1044 104.584 66.7817 104.782 66.503 105.046C66.2244 105.295 66.0044 105.603 65.843 105.97C65.6817 106.337 65.5937 106.74 65.579 107.18V107.246Z" fill="#CC36A2"/>
</svg>
